<svg xmlns="http://www.w3.org/2000/svg" viewBox="0 0 64 64" role="img" aria-label="Explaining the Order">
  <rect width="64" height="64" rx="14" fill="#fff"/>
  <path fill="#fbbc04" d="M13 45a27 27 0 0 0 10 8l5-8a17 17 0 0 1-6-5z"/>
  <path fill="#34a853" d="M23 53a27 27 0 0 0 24-2l-5-8a17 17 0 0 1-14 2z"/>
  <path fill="#4285f4" d="M47 51a27 27 0 0 0 7-31l-9 4a17 17 0 0 1-3 19z"/>
  <path fill="#ea4335" d="M54 20A27 27 0 0 0 15 12l7 7a17 17 0 0 1 23 5z"/>
  <path fill="#202124" fill-opacity=".12" d="M21 20a17 17 0 0 0-8 25l9-5a17 17 0 0 1 0-20z"/>
  <path fill="none" stroke="#dfe1e5" stroke-width="3" d="M18 43 31 28l15 10M31 28l8-14"/>
  <circle cx="18" cy="43" r="7" fill="#fbbc04" stroke="#fff" stroke-width="3"/>
  <circle cx="31" cy="28" r="8" fill="#4285f4" stroke="#fff" stroke-width="3"/>
  <circle cx="46" cy="38" r="7" fill="#34a853" stroke="#fff" stroke-width="3"/>
  <circle cx="39" cy="14" r="6" fill="#ea4335" stroke="#fff" stroke-width="3"/>
  <circle cx="31" cy="28" r="2.2" fill="#fff"/>
</svg>
